/* XPM */
static char*all_spectrum[]={
"32 32 5 1",
"c c #008000",
"# c #a0a0a0",
"b c #303030",
"a c #585858",
". c #dcdcdc",
"................................",
"................................",
"..############################aa",
"..############################aa",
"..##bbbbbbbbbbbbbbbbbbbbbbbb##aa",
"..##bbbbbbbbbbbbbbbbbbbbbbbb##aa",
"..##bbccccccccccccccccccccbb##aa",
"..##bbccccccccccccccccccccbb##aa",
"..##bbccccccccccccccccccccbb##aa",
"..##bbcccccc..ccccccccccccbb##aa",
"..##bbcccccc..ccccccccccccbb##aa",
"..##bbcccccc..ccccccccccccbb##aa",
"..##bbcc..cc..ccccccccccccbb##aa",
"..##bbcc..cc..ccccccccccccbb##aa",
"..##bbcc..cc..ccccccccccccbb##aa",
"..##bbcc..cc..ccccccccccccbb##aa",
"..##bbcc..cc..ccccccccccccbb##aa",
"..##bbcc..cc..cccccc..ccccbb##aa",
"..##bbcc..cc..cccccc..ccccbb##aa",
"..##bbcc..cc..cccccc..ccccbb##aa",
"..##bbcc..cc..cccccc..ccccbb##aa",
"..##bbcc...c..cccccc..ccccbb##aa",
"..##bbcc..c.....cccc..ccccbb##aa",
"..##bbcc..cccccc......ccccbb##aa",
"..##bb..cccccccccccc..ccccbb##aa",
"..##bb..cccccccccccccc....bb##aa",
"..##bbbbbbbbbbbbbbbbbbbbbbbb##aa",
"..##bbbbbbbbbbbbbbbbbbbbbbbb##aa",
"..############################aa",
"..############################aa",
"..aaaaaaaaaaaaaaaaaaaaaaaaaaaaaa",
"..aaaaaaaaaaaaaaaaaaaaaaaaaaaaaa"};
