/* XPM */
static char*spectrum[]={
"32 32 3 1",
". c #000000",
"# c #00c000",
"a c #dcdcdc",
"................................",
".##############################.",
".##############################.",
".##############################.",
".##############################.",
".##############################.",
".##############################.",
".##############################.",
".##############################.",
".##############################.",
".##############################.",
".####aa########################.",
".####aa########################.",
".####aa########################.",
".####aa########################.",
".####aa########################.",
".####aa########################.",
".####aa####aa##################.",
".####aa####aa##################.",
".####aa####aa##################.",
".####aa####aa##################.",
".####aa####aa##################.",
".####aa#aa#aa##################.",
".aa##aa#aa#aa########aa########.",
".aa##aa#aa#aa########aa########.",
".aa##aa#aa#aa########aa########.",
".aa##aa#aa#aa##aa####aa########.",
".aa##aa#aa#aa##aa####aa########.",
".aaaaaaaaa#aa##aa####aa########.",
".aa######aaaa##aa####aa########.",
".a##########aaaaaaaaaaa########.",
"................................"};
